<svg width="164" height="40" viewBox="0 0 164 40" fill="none" xmlns="http://www.w3.org/2000/svg">
<g clip-path="url(#clip0_691_1209)">
<path d="M48.1504 3.78125V6.1543H43.0332V18H40.1816V3.78125H48.1504Z" fill="#3B506B"/>
<path d="M50.8555 9.46484V22.0625H48.1309V7.43359H50.6504L50.8555 9.46484ZM56.3438 12.3555V13.0586C56.3438 13.8854 56.2721 14.6178 56.1289 15.2559C55.9857 15.8874 55.7708 16.4245 55.4844 16.8672C55.2044 17.3034 54.8529 17.6354 54.4297 17.8633C54.0065 18.0846 53.5117 18.1953 52.9453 18.1953C52.418 18.1953 51.9622 18.0716 51.5781 17.8242C51.2005 17.5703 50.8815 17.222 50.6211 16.7793C50.3607 16.3366 50.1523 15.819 49.9961 15.2266C49.8398 14.6341 49.7194 13.9993 49.6348 13.3223V12.2285C49.7129 11.5059 49.8268 10.8418 49.9766 10.2363C50.1263 9.62435 50.3314 9.09375 50.5918 8.64453C50.8587 8.19531 51.181 7.85026 51.5586 7.60938C51.9427 7.36198 52.3984 7.23828 52.9258 7.23828C53.4987 7.23828 53.9967 7.34245 54.4199 7.55078C54.8496 7.75911 55.2044 8.07487 55.4844 8.49805C55.7708 8.91471 55.9857 9.44531 56.1289 10.0898C56.2721 10.7344 56.3438 11.4896 56.3438 12.3555ZM53.6094 13.0586V12.3555C53.6094 11.8477 53.5801 11.4147 53.5215 11.0566C53.4694 10.6986 53.3848 10.4056 53.2676 10.1777C53.1504 9.94987 52.9974 9.78385 52.8086 9.67969C52.6198 9.57552 52.3887 9.52344 52.1152 9.52344C51.8483 9.52344 51.6139 9.57552 51.4121 9.67969C51.2168 9.78385 51.0573 9.93685 50.9336 10.1387C50.8099 10.334 50.7155 10.5749 50.6504 10.8613C50.5853 11.1413 50.5495 11.4603 50.543 11.8184V13.7324C50.556 14.1556 50.6113 14.5299 50.709 14.8555C50.8132 15.181 50.9792 15.4414 51.207 15.6367C51.4349 15.8255 51.7441 15.9199 52.1348 15.9199C52.4147 15.9199 52.6458 15.8613 52.8281 15.7441C53.0169 15.627 53.1699 15.4512 53.2871 15.2168C53.4043 14.9824 53.4857 14.6862 53.5312 14.3281C53.5833 13.9701 53.6094 13.5469 53.6094 13.0586Z" fill="#3B506B"/>
<path d="M60.5625 16.7891L62.7695 7.43359H65.6211L62.1445 19.582C62.0664 19.849 61.959 20.1354 61.8223 20.4414C61.6855 20.7539 61.5033 21.0469 61.2754 21.3203C61.054 21.6003 60.7741 21.8281 60.4355 22.0039C60.097 22.1797 59.6901 22.2676 59.2148 22.2676C58.974 22.2676 58.7786 22.2513 58.6289 22.2188C58.4857 22.1927 58.3034 22.1471 58.082 22.082V19.9531C58.1406 19.9531 58.196 19.9531 58.248 19.9531C58.3066 19.9596 58.362 19.9629 58.4141 19.9629C58.7201 19.9629 58.9642 19.9206 59.1465 19.8359C59.3288 19.7578 59.4753 19.6341 59.5859 19.4648C59.7031 19.2956 59.8008 19.084 59.8789 18.8301L60.5625 16.7891ZM59.9961 7.43359L61.6367 15.0117L62.0078 18.0977L60.1621 18.2734L57.0664 7.43359H59.9961Z" fill="#3B506B"/>
<path d="M70.9727 12.9609H69.0977V11.6816H70.4062C70.6276 11.6816 70.8034 11.6361 70.9336 11.5449C71.0638 11.4473 71.1582 11.3138 71.2168 11.1445C71.2819 10.9688 71.3145 10.7702 71.3145 10.5488C71.3145 10.3535 71.2884 10.168 71.2363 9.99219C71.1842 9.8099 71.0931 9.66341 70.9629 9.55273C70.8392 9.43555 70.6569 9.37695 70.416 9.37695C70.2012 9.37695 70.0124 9.41927 69.8496 9.50391C69.6934 9.58854 69.5729 9.71224 69.4883 9.875C69.4102 10.0378 69.3711 10.2363 69.3711 10.4707H66.627C66.627 9.79362 66.7897 9.21745 67.1152 8.74219C67.4473 8.26042 67.89 7.89258 68.4434 7.63867C68.9967 7.37826 69.6055 7.24805 70.2695 7.24805C70.8424 7.24805 71.36 7.31641 71.8223 7.45312C72.291 7.58333 72.6882 7.77865 73.0137 8.03906C73.3457 8.29948 73.5996 8.62174 73.7754 9.00586C73.9512 9.38346 74.0391 9.82292 74.0391 10.3242C74.0391 10.6823 73.9674 11.0208 73.8242 11.3398C73.681 11.6589 73.4759 11.9421 73.209 12.1895C72.9421 12.4303 72.6198 12.6191 72.2422 12.7559C71.8646 12.8926 71.4414 12.9609 70.9727 12.9609ZM69.0977 12.2578H70.9727C71.4935 12.2578 71.9525 12.3197 72.3496 12.4434C72.7533 12.5605 73.0918 12.7363 73.3652 12.9707C73.6387 13.2051 73.847 13.4948 73.9902 13.8398C74.1335 14.1784 74.2051 14.569 74.2051 15.0117C74.2051 15.513 74.1074 15.9622 73.9121 16.3594C73.7233 16.75 73.4531 17.082 73.1016 17.3555C72.75 17.6289 72.3333 17.8372 71.8516 17.9805C71.3698 18.1237 70.8424 18.1953 70.2695 18.1953C69.6445 18.1953 69.0423 18.0781 68.4629 17.8438C67.89 17.6094 67.418 17.248 67.0469 16.7598C66.6758 16.265 66.4902 15.6335 66.4902 14.8652H69.2246C69.2246 15.0736 69.2669 15.2721 69.3516 15.4609C69.4362 15.6432 69.5664 15.793 69.7422 15.9102C69.918 16.0208 70.1426 16.0762 70.416 16.0762C70.6829 16.0762 70.8913 16.0143 71.041 15.8906C71.1908 15.7604 71.2982 15.5977 71.3633 15.4023C71.4284 15.207 71.4609 15.002 71.4609 14.7871C71.4609 14.4941 71.4219 14.2533 71.3438 14.0645C71.2656 13.8757 71.1484 13.7357 70.9922 13.6445C70.8359 13.5534 70.6406 13.5078 70.4062 13.5078H69.0977V12.2578Z" fill="#3B506B"/>
<path d="M85.9727 3.78125V18H83.1309V6.1543H78.8926V18H76.0312V3.78125H85.9727Z" fill="#3B506B"/>
<path d="M90.9141 9.46484V22.0625H88.1895V7.43359H90.709L90.9141 9.46484ZM96.4023 12.3555V13.0586C96.4023 13.8854 96.3307 14.6178 96.1875 15.2559C96.0443 15.8874 95.8294 16.4245 95.543 16.8672C95.263 17.3034 94.9115 17.6354 94.4883 17.8633C94.0651 18.0846 93.5703 18.1953 93.0039 18.1953C92.4766 18.1953 92.0208 18.0716 91.6367 17.8242C91.2591 17.5703 90.9401 17.222 90.6797 16.7793C90.4193 16.3366 90.2109 15.819 90.0547 15.2266C89.8984 14.6341 89.778 13.9993 89.6934 13.3223V12.2285C89.7715 11.5059 89.8854 10.8418 90.0352 10.2363C90.1849 9.62435 90.39 9.09375 90.6504 8.64453C90.9173 8.19531 91.2396 7.85026 91.6172 7.60938C92.0013 7.36198 92.457 7.23828 92.9844 7.23828C93.5573 7.23828 94.0553 7.34245 94.4785 7.55078C94.9082 7.75911 95.263 8.07487 95.543 8.49805C95.8294 8.91471 96.0443 9.44531 96.1875 10.0898C96.3307 10.7344 96.4023 11.4896 96.4023 12.3555ZM93.668 13.0586V12.3555C93.668 11.8477 93.6387 11.4147 93.5801 11.0566C93.528 10.6986 93.4434 10.4056 93.3262 10.1777C93.209 9.94987 93.056 9.78385 92.8672 9.67969C92.6784 9.57552 92.4473 9.52344 92.1738 9.52344C91.9069 9.52344 91.6725 9.57552 91.4707 9.67969C91.2754 9.78385 91.1159 9.93685 90.9922 10.1387C90.8685 10.334 90.7741 10.5749 90.709 10.8613C90.6439 11.1413 90.6081 11.4603 90.6016 11.8184V13.7324C90.6146 14.1556 90.6699 14.5299 90.7676 14.8555C90.8717 15.181 91.0378 15.4414 91.2656 15.6367C91.4935 15.8255 91.8027 15.9199 92.1934 15.9199C92.4733 15.9199 92.7044 15.8613 92.8867 15.7441C93.0755 15.627 93.2285 15.4512 93.3457 15.2168C93.4629 14.9824 93.5443 14.6862 93.5898 14.3281C93.6419 13.9701 93.668 13.5469 93.668 13.0586Z" fill="#3B506B"/>
<path d="M97.7695 13.0781V12.3652C97.7695 11.5384 97.8672 10.806 98.0625 10.168C98.2643 9.52995 98.5508 8.99609 98.9219 8.56641C99.293 8.13021 99.7389 7.80143 100.26 7.58008C100.787 7.35221 101.376 7.23828 102.027 7.23828C102.685 7.23828 103.274 7.35221 103.795 7.58008C104.322 7.80143 104.771 8.13021 105.143 8.56641C105.52 8.99609 105.81 9.52995 106.012 10.168C106.214 10.806 106.314 11.5384 106.314 12.3652V13.0781C106.314 13.8984 106.214 14.6276 106.012 15.2656C105.81 15.9036 105.52 16.4408 105.143 16.877C104.771 17.3132 104.326 17.6419 103.805 17.8633C103.284 18.0846 102.698 18.1953 102.047 18.1953C101.396 18.1953 100.807 18.0846 100.279 17.8633C99.7585 17.6419 99.3092 17.3132 98.9316 16.877C98.554 16.4408 98.2643 15.9036 98.0625 15.2656C97.8672 14.6276 97.7695 13.8984 97.7695 13.0781ZM100.504 12.3652V13.0781C100.504 13.5664 100.536 13.9896 100.602 14.3477C100.673 14.7057 100.774 15.002 100.904 15.2363C101.041 15.4707 101.204 15.6432 101.393 15.7539C101.581 15.8646 101.799 15.9199 102.047 15.9199C102.294 15.9199 102.516 15.8646 102.711 15.7539C102.906 15.6432 103.066 15.4707 103.189 15.2363C103.32 15.002 103.414 14.7057 103.473 14.3477C103.538 13.9896 103.57 13.5664 103.57 13.0781V12.3652C103.57 11.89 103.535 11.4733 103.463 11.1152C103.391 10.7507 103.29 10.4544 103.16 10.2266C103.03 9.99219 102.867 9.81641 102.672 9.69922C102.483 9.57552 102.268 9.51367 102.027 9.51367C101.786 9.51367 101.572 9.57552 101.383 9.69922C101.201 9.81641 101.041 9.99219 100.904 10.2266C100.774 10.4544 100.673 10.7507 100.602 11.1152C100.536 11.4733 100.504 11.89 100.504 12.3652Z" fill="#3B506B"/>
<path d="M113.58 14.2109L115.562 7.43359H117.818L114.576 18H112.564L109.303 7.43359H111.607L113.58 14.2109ZM110.865 7.43359V18H108.219V7.43359H110.865ZM116.354 18V7.43359H119.01V18H116.354Z" fill="#3B506B"/>
<path d="M129.342 3.78125V6.1543H123.512V3.78125H129.342ZM131.412 3.78125V18H128.57V3.78125H131.412ZM123.16 3.78125H125.992L125.709 10.9492C125.67 12.0169 125.585 12.9447 125.455 13.7324C125.325 14.5202 125.149 15.1875 124.928 15.7344C124.713 16.2747 124.443 16.7142 124.117 17.0527C123.792 17.3848 123.414 17.6257 122.984 17.7754C122.555 17.9251 122.07 18 121.529 18H120.855V15.6367L121.178 15.5977C121.432 15.5651 121.656 15.4837 121.852 15.3535C122.047 15.2168 122.213 15.015 122.35 14.748C122.486 14.4746 122.597 14.1263 122.682 13.7031C122.773 13.2734 122.841 12.7526 122.887 12.1406C122.939 11.5286 122.975 10.8158 122.994 10.002L123.16 3.78125Z" fill="#3B506B"/>
<path d="M136.314 13.2344L138.941 7.43359H141.578V18H138.873V12.2188L136.256 18H133.609V7.43359H136.314V13.2344Z" fill="#3B506B"/>
<path d="M154.605 12.7949V12.9902C154.605 13.752 154.534 14.4518 154.391 15.0898C154.254 15.7214 154.046 16.2715 153.766 16.7402C153.492 17.2025 153.15 17.5605 152.74 17.8145C152.33 18.0684 151.855 18.1953 151.314 18.1953C150.787 18.1953 150.331 18.0781 149.947 17.8438C149.563 17.6094 149.241 17.2806 148.98 16.8574C148.727 16.4342 148.518 15.9427 148.355 15.3828C148.199 14.8229 148.082 14.2174 148.004 13.5664V12.1992C148.082 11.4961 148.199 10.8451 148.355 10.2461C148.512 9.64714 148.72 9.12305 148.98 8.67383C149.241 8.2181 149.56 7.86654 149.938 7.61914C150.322 7.36523 150.777 7.23828 151.305 7.23828C151.741 7.23828 152.132 7.32617 152.477 7.50195C152.828 7.67773 153.137 7.93164 153.404 8.26367C153.671 8.58919 153.893 8.97982 154.068 9.43555C154.244 9.89128 154.378 10.4023 154.469 10.9688C154.56 11.5352 154.605 12.1439 154.605 12.7949ZM151.861 12.9902V12.7852C151.861 12.4271 151.845 12.0853 151.812 11.7598C151.786 11.4277 151.744 11.125 151.686 10.8516C151.627 10.5781 151.546 10.3438 151.441 10.1484C151.337 9.95312 151.214 9.80013 151.07 9.68945C150.927 9.57227 150.761 9.51367 150.572 9.51367C150.201 9.51367 149.895 9.60807 149.654 9.79688C149.413 9.97917 149.231 10.2428 149.107 10.5879C148.99 10.9264 148.922 11.3301 148.902 11.7988V13.9668C148.922 14.377 148.987 14.7253 149.098 15.0117C149.215 15.2982 149.394 15.5228 149.635 15.6855C149.876 15.8418 150.191 15.9199 150.582 15.9199C150.829 15.9199 151.035 15.8483 151.197 15.7051C151.36 15.5553 151.49 15.3503 151.588 15.0898C151.686 14.8229 151.754 14.5137 151.793 14.1621C151.839 13.804 151.861 13.4134 151.861 12.9902ZM143.268 12.9902V12.7852C143.268 12.1406 143.313 11.5352 143.404 10.9688C143.495 10.4023 143.629 9.89128 143.805 9.43555C143.987 8.97982 144.208 8.58919 144.469 8.26367C144.729 7.93164 145.035 7.67773 145.387 7.50195C145.738 7.32617 146.132 7.23828 146.568 7.23828C147.096 7.23828 147.545 7.36523 147.916 7.61914C148.294 7.86654 148.609 8.2181 148.863 8.67383C149.124 9.12305 149.332 9.64714 149.488 10.2461C149.651 10.8451 149.771 11.4961 149.85 12.1992V13.498C149.765 14.1621 149.645 14.7806 149.488 15.3535C149.339 15.9199 149.133 16.418 148.873 16.8477C148.613 17.2708 148.29 17.6029 147.906 17.8438C147.529 18.0781 147.076 18.1953 146.549 18.1953C146.015 18.1953 145.543 18.0684 145.133 17.8145C144.723 17.5605 144.378 17.2025 144.098 16.7402C143.824 16.2715 143.616 15.7214 143.473 15.0898C143.336 14.4518 143.268 13.752 143.268 12.9902ZM146.002 12.7852V12.9902C146.002 13.4134 146.021 13.804 146.061 14.1621C146.1 14.5137 146.168 14.8197 146.266 15.0801C146.363 15.3405 146.49 15.5456 146.646 15.6953C146.809 15.8385 147.018 15.9102 147.271 15.9102C147.669 15.9102 147.988 15.8288 148.229 15.666C148.469 15.5033 148.645 15.2754 148.756 14.9824C148.873 14.6829 148.935 14.3216 148.941 13.8984V11.7988C148.935 11.3301 148.87 10.9264 148.746 10.5879C148.629 10.2428 148.45 9.97917 148.209 9.79688C147.968 9.60807 147.662 9.51367 147.291 9.51367C147.044 9.51367 146.835 9.60156 146.666 9.77734C146.503 9.94661 146.373 10.181 146.275 10.4805C146.178 10.7799 146.106 11.1283 146.061 11.5254C146.021 11.916 146.002 12.3359 146.002 12.7852ZM147.545 22.0625V3H150.279V22.0625H147.545Z" fill="#3B506B"/>
<path d="M160.748 7.43359V18H158.004V7.43359H160.748ZM163.463 7.43359V9.68945H155.299V7.43359H163.463Z" fill="#3B506B"/>
<path d="M42.334 32.9102H41.3438V32.0605H42.1816C42.4473 32.0605 42.6602 32.0078 42.8203 31.9023C42.9844 31.7969 43.1035 31.6484 43.1777 31.457C43.2559 31.2656 43.2949 31.043 43.2949 30.7891C43.2949 30.5625 43.252 30.3555 43.166 30.168C43.0801 29.9805 42.9473 29.8301 42.7676 29.7168C42.5918 29.6035 42.3652 29.5469 42.0879 29.5469C41.8809 29.5469 41.6914 29.5977 41.5195 29.6992C41.3516 29.7969 41.2188 29.9355 41.1211 30.1152C41.0234 30.2949 40.9746 30.5059 40.9746 30.748H39.5566C39.5566 30.377 39.623 30.0449 39.7559 29.752C39.8887 29.4551 40.0723 29.2031 40.3066 28.9961C40.541 28.7891 40.8105 28.6309 41.1152 28.5215C41.4238 28.4082 41.748 28.3516 42.0879 28.3516C42.4863 28.3516 42.8457 28.4043 43.166 28.5098C43.4902 28.6113 43.7676 28.7637 43.998 28.9668C44.2285 29.1699 44.4043 29.4238 44.5254 29.7285C44.6504 30.0293 44.7129 30.3789 44.7129 30.7773C44.7129 31.0703 44.6562 31.3457 44.543 31.6035C44.4297 31.8613 44.2676 32.0879 44.0566 32.2832C43.8457 32.4785 43.5938 32.6328 43.3008 32.7461C43.0117 32.8555 42.6895 32.9102 42.334 32.9102ZM41.3438 32.4004H42.334C42.7246 32.4004 43.0723 32.4492 43.377 32.5469C43.6855 32.6445 43.9473 32.7871 44.1621 32.9746C44.377 33.1621 44.541 33.3945 44.6543 33.6719C44.7676 33.9453 44.8242 34.2598 44.8242 34.6152C44.8242 35.0137 44.7559 35.3691 44.6191 35.6816C44.4863 35.9902 44.2969 36.252 44.0508 36.4668C43.8086 36.6816 43.5195 36.8438 43.1836 36.9531C42.8516 37.0625 42.4844 37.1172 42.082 37.1172C41.7617 37.1172 41.4453 37.0703 41.1328 36.9766C40.8242 36.8789 40.543 36.7305 40.2891 36.5312C40.0352 36.3281 39.832 36.0703 39.6797 35.7578C39.5273 35.4453 39.4512 35.0703 39.4512 34.6328H40.875C40.875 34.8711 40.9258 35.0898 41.0273 35.2891C41.1328 35.4844 41.2754 35.6406 41.4551 35.7578C41.6387 35.8711 41.8496 35.9277 42.0879 35.9277C42.3691 35.9277 42.6074 35.8711 42.8027 35.7578C42.998 35.6445 43.1465 35.4883 43.248 35.2891C43.3535 35.0859 43.4062 34.8594 43.4062 34.6094C43.4062 34.3711 43.3789 34.1641 43.3242 33.9883C43.2734 33.8125 43.1953 33.6699 43.0898 33.5605C42.9883 33.4473 42.8613 33.3652 42.709 33.3145C42.5566 33.2598 42.3789 33.2324 42.1758 33.2324H41.3438V32.4004Z" fill="#697380"/>
<path d="M49.4616 29.6406L47.3991 37H45.9108L48.6178 28.4688H49.5436L49.4616 29.6406ZM51.108 37L49.0397 29.6406L48.9401 28.4688H49.8834L52.6022 37H51.108ZM51.1432 33.8301V35.0254H47.1705V33.8301H51.1432Z" fill="#697380"/>
<path d="M56.677 33.1562H54.9368L54.9309 32.0664H56.472C56.7102 32.0664 56.9134 32.0195 57.0813 31.9258C57.2493 31.832 57.3763 31.6953 57.4622 31.5156C57.552 31.3359 57.597 31.1191 57.597 30.8652C57.597 30.584 57.5579 30.3555 57.4798 30.1797C57.4016 30 57.2786 29.8691 57.1106 29.7871C56.9466 29.7051 56.7356 29.6641 56.4778 29.6641H55.3587V37H53.9348V28.4688H56.4778C56.8763 28.4688 57.2317 28.5156 57.5442 28.6094C57.8606 28.6992 58.1282 28.8379 58.347 29.0254C58.5657 29.2129 58.7317 29.4531 58.845 29.7461C58.9622 30.0352 59.0208 30.3789 59.0208 30.7773C59.0208 31.125 58.9466 31.4453 58.7981 31.7383C58.6497 32.0273 58.429 32.2656 58.136 32.4531C57.847 32.6367 57.4876 32.7461 57.0579 32.7812L56.677 33.1562ZM56.6243 37H54.468L55.1243 35.8105H56.6243C56.8782 35.8105 57.0872 35.7559 57.2513 35.6465C57.4153 35.5371 57.5384 35.3848 57.6204 35.1895C57.7024 34.9941 57.7434 34.7656 57.7434 34.5039C57.7434 34.2305 57.7083 33.9922 57.638 33.7891C57.5677 33.5859 57.4544 33.4297 57.2981 33.3203C57.1419 33.2109 56.9348 33.1562 56.677 33.1562H55.2415L55.2532 32.0664H57.0872L57.4153 32.4824C57.8255 32.4902 58.1595 32.5918 58.4173 32.7871C58.6751 32.9785 58.8645 33.2266 58.9856 33.5312C59.1067 33.8359 59.1673 34.1621 59.1673 34.5098C59.1673 35.0527 59.0657 35.5098 58.8626 35.8809C58.6595 36.248 58.3684 36.5273 57.9895 36.7188C57.6145 36.9062 57.1595 37 56.6243 37Z" fill="#697380"/>
<path d="M66.7402 32.0371V33.4902C66.7402 34.0918 66.6698 34.6191 66.5292 35.0723C66.3925 35.5254 66.1933 35.9043 65.9316 36.209C65.6737 36.5098 65.3612 36.7363 64.9941 36.8887C64.6308 37.041 64.2245 37.1172 63.7753 37.1172C63.33 37.1172 62.9237 37.041 62.5566 36.8887C62.1933 36.7363 61.8788 36.5098 61.6132 36.209C61.3515 35.9043 61.1484 35.5254 61.0038 35.0723C60.8632 34.6191 60.7929 34.0918 60.7929 33.4902V32.0371C60.7929 31.4277 60.8632 30.8945 61.0038 30.4375C61.1445 29.9766 61.3456 29.5918 61.6073 29.2832C61.873 28.9746 62.1874 28.7422 62.5507 28.5859C62.9179 28.4297 63.3222 28.3516 63.7636 28.3516C64.2128 28.3516 64.6191 28.4297 64.9823 28.5859C65.3495 28.7422 65.664 28.9746 65.9257 29.2832C66.1874 29.5918 66.3886 29.9766 66.5292 30.4375C66.6698 30.8945 66.7402 31.4277 66.7402 32.0371ZM65.328 33.4902V32.0254C65.328 31.5918 65.2929 31.2207 65.2226 30.9121C65.1562 30.5996 65.0566 30.3457 64.9237 30.1504C64.7909 29.9512 64.6269 29.8047 64.4316 29.7109C64.2402 29.6133 64.0175 29.5645 63.7636 29.5645C63.5175 29.5645 63.2968 29.6133 63.1015 29.7109C62.9101 29.8047 62.746 29.9512 62.6093 30.1504C62.4765 30.3457 62.3749 30.5996 62.3046 30.9121C62.2382 31.2207 62.205 31.5918 62.205 32.0254V33.4902C62.205 33.916 62.2402 34.2832 62.3105 34.5918C62.3808 34.8965 62.4823 35.1465 62.6152 35.3418C62.7519 35.5332 62.9179 35.6758 63.1132 35.7695C63.3085 35.8633 63.5292 35.9102 63.7753 35.9102C64.0253 35.9102 64.248 35.8633 64.4433 35.7695C64.6386 35.6758 64.8007 35.5332 64.9296 35.3418C65.0624 35.1465 65.162 34.8965 65.2284 34.5918C65.2948 34.2832 65.328 33.916 65.328 33.4902Z" fill="#697380"/>
<path d="M74.0494 35.8105V37H68.8755V35.8105H74.0494ZM69.2095 35.8105V39.0977H67.8502L67.7916 35.8105H69.2095ZM75.1509 35.8105L75.063 39.0918H73.7213V35.8105H75.1509ZM73.106 28.4688V29.6641H69.8248V28.4688H73.106ZM74.2076 28.4688V37H72.7896V28.4688H74.2076ZM69.5435 28.4688H70.9615L70.7798 31.9375C70.7525 32.4844 70.7056 32.9766 70.6392 33.4141C70.5728 33.8516 70.4908 34.2422 70.3931 34.5859C70.2955 34.9297 70.1861 35.2324 70.065 35.4941C69.9439 35.752 69.813 35.9766 69.6724 36.168C69.5357 36.3594 69.3912 36.5234 69.2388 36.6602C69.0904 36.7969 68.942 36.9102 68.7935 37H68.0787V35.8105H68.3951C68.4849 35.709 68.5787 35.5684 68.6763 35.3887C68.7779 35.2051 68.8736 34.9648 68.9634 34.668C69.0572 34.3672 69.1373 33.9941 69.2037 33.5488C69.274 33.1035 69.3248 32.5664 69.356 31.9375L69.5435 28.4688Z" fill="#697380"/>
<path d="M85.5037 28.4688V37H84.0858V29.6641H81.1795V37H79.7557V28.4688H85.5037Z" fill="#697380"/>
<path d="M93.2934 32.0371V33.4902C93.2934 34.0918 93.2231 34.6191 93.0825 35.0723C92.9458 35.5254 92.7466 35.9043 92.4848 36.209C92.227 36.5098 91.9145 36.7363 91.5473 36.8887C91.1841 37.041 90.7778 37.1172 90.3286 37.1172C89.8833 37.1172 89.477 37.041 89.1098 36.8887C88.7466 36.7363 88.4321 36.5098 88.1665 36.209C87.9048 35.9043 87.7016 35.5254 87.5571 35.0723C87.4165 34.6191 87.3462 34.0918 87.3462 33.4902V32.0371C87.3462 31.4277 87.4165 30.8945 87.5571 30.4375C87.6977 29.9766 87.8989 29.5918 88.1606 29.2832C88.4263 28.9746 88.7407 28.7422 89.104 28.5859C89.4712 28.4297 89.8755 28.3516 90.3169 28.3516C90.7661 28.3516 91.1723 28.4297 91.5356 28.5859C91.9028 28.7422 92.2173 28.9746 92.479 29.2832C92.7407 29.5918 92.9419 29.9766 93.0825 30.4375C93.2231 30.8945 93.2934 31.4277 93.2934 32.0371ZM91.8813 33.4902V32.0254C91.8813 31.5918 91.8462 31.2207 91.7759 30.9121C91.7095 30.5996 91.6098 30.3457 91.477 30.1504C91.3442 29.9512 91.1802 29.8047 90.9848 29.7109C90.7934 29.6133 90.5708 29.5645 90.3169 29.5645C90.0708 29.5645 89.8501 29.6133 89.6548 29.7109C89.4634 29.8047 89.2993 29.9512 89.1626 30.1504C89.0298 30.3457 88.9282 30.5996 88.8579 30.9121C88.7915 31.2207 88.7583 31.5918 88.7583 32.0254V33.4902C88.7583 33.916 88.7934 34.2832 88.8638 34.5918C88.9341 34.8965 89.0356 35.1465 89.1684 35.3418C89.3052 35.5332 89.4712 35.6758 89.6665 35.7695C89.8618 35.8633 90.0825 35.9102 90.3286 35.9102C90.5786 35.9102 90.8013 35.8633 90.9966 35.7695C91.1919 35.6758 91.354 35.5332 91.4829 35.3418C91.6157 35.1465 91.7153 34.8965 91.7817 34.5918C91.8481 34.2832 91.8813 33.916 91.8813 33.4902Z" fill="#697380"/>
<path d="M100.603 35.8105V37H95.4288V35.8105H100.603ZM95.7628 35.8105V39.0977H94.4034L94.3448 35.8105H95.7628ZM101.704 35.8105L101.616 39.0918H100.275V35.8105H101.704ZM99.6593 28.4688V29.6641H96.378V28.4688H99.6593ZM100.761 28.4688V37H99.3429V28.4688H100.761ZM96.0968 28.4688H97.5148L97.3331 31.9375C97.3058 32.4844 97.2589 32.9766 97.1925 33.4141C97.1261 33.8516 97.0441 34.2422 96.9464 34.5859C96.8488 34.9297 96.7394 35.2324 96.6183 35.4941C96.4972 35.752 96.3663 35.9766 96.2257 36.168C96.089 36.3594 95.9445 36.5234 95.7921 36.6602C95.6437 36.7969 95.4952 36.9102 95.3468 37H94.632V35.8105H94.9484C95.0382 35.709 95.132 35.5684 95.2296 35.3887C95.3312 35.2051 95.4269 34.9648 95.5167 34.668C95.6105 34.3672 95.6905 33.9941 95.757 33.5488C95.8273 33.1035 95.878 32.5664 95.9093 31.9375L96.0968 28.4688Z" fill="#697380"/>
<path d="M102.638 29.6172V28.4688H104.935V29.6172H102.638ZM105.486 31.7207H107.25C107.801 31.7207 108.271 31.8301 108.662 32.0488C109.056 32.2676 109.359 32.5723 109.57 32.9629C109.785 33.3535 109.892 33.8125 109.892 34.3398C109.892 34.7305 109.832 35.0879 109.711 35.4121C109.59 35.7363 109.416 36.0176 109.189 36.2559C108.963 36.4941 108.685 36.6777 108.357 36.8066C108.029 36.9355 107.66 37 107.25 37H104.472V28.4688H105.896V35.8105H107.25C107.527 35.8105 107.756 35.7422 107.935 35.6055C108.115 35.4648 108.248 35.2832 108.334 35.0605C108.424 34.834 108.469 34.5898 108.469 34.3281C108.469 34.0664 108.424 33.8301 108.334 33.6191C108.248 33.4043 108.115 33.2344 107.935 33.1094C107.756 32.9805 107.527 32.916 107.25 32.916H105.486V31.7207Z" fill="#697380"/>
<path d="M116.176 35.8105V37H112.473V35.8105H116.176ZM112.848 28.4688V37H111.424V28.4688H112.848ZM115.678 32.0195V33.1914H112.473V32.0195H115.678ZM116.141 28.4688V29.6641H112.473V28.4688H116.141ZM111.764 27.127C111.764 26.9316 111.83 26.7676 111.963 26.6348C112.096 26.502 112.274 26.4355 112.496 26.4355C112.719 26.4355 112.897 26.502 113.03 26.6348C113.162 26.7676 113.229 26.9316 113.229 27.127C113.229 27.3184 113.162 27.4805 113.03 27.6133C112.897 27.7422 112.719 27.8066 112.496 27.8066C112.274 27.8066 112.096 27.7422 111.963 27.6133C111.83 27.4805 111.764 27.3184 111.764 27.127ZM114.465 27.1328C114.465 26.9375 114.532 26.7734 114.664 26.6406C114.797 26.5078 114.975 26.4414 115.198 26.4414C115.42 26.4414 115.598 26.5078 115.731 26.6406C115.868 26.7734 115.936 26.9375 115.936 27.1328C115.936 27.3203 115.868 27.4805 115.731 27.6133C115.598 27.7461 115.42 27.8125 115.198 27.8125C114.975 27.8125 114.797 27.7461 114.664 27.6133C114.532 27.4805 114.465 27.3203 114.465 27.1328Z" fill="#697380"/>
<path d="M118.2 28.4688H119.495L121.458 34.8145L123.415 28.4688H124.616L121.991 37H120.919L118.2 28.4688ZM117.714 28.4688H118.909L119.103 33.9004V37H117.714V28.4688ZM123.995 28.4688H125.196V37H123.808V33.9004L123.995 28.4688Z" fill="#697380"/>
<path d="M131.838 32.0195V33.2148H128.246V32.0195H131.838ZM128.58 28.4688V37H127.156V28.4688H128.58ZM132.951 28.4688V37H131.533V28.4688H132.951Z" fill="#697380"/>
<path d="M136.305 34.4043L139.276 28.4688H140.653V37H139.258V31.0996L136.305 37H134.916V28.4688H136.305V34.4043Z" fill="#697380"/>
<path d="M144.095 28.4688V37H142.671V28.4688H144.095ZM148.354 28.4688L145.507 33.3496H143.685L143.479 32.0371H144.71L146.62 28.4688H148.354ZM146.872 37L144.751 33.1152L145.665 31.9668L148.577 37H146.872Z" fill="#697380"/>
<path d="M155.353 32.0371V33.4902C155.353 34.0918 155.283 34.6191 155.142 35.0723C155.005 35.5254 154.806 35.9043 154.545 36.209C154.287 36.5098 153.974 36.7363 153.607 36.8887C153.244 37.041 152.838 37.1172 152.388 37.1172C151.943 37.1172 151.537 37.041 151.17 36.8887C150.806 36.7363 150.492 36.5098 150.226 36.209C149.964 35.9043 149.761 35.5254 149.617 35.0723C149.476 34.6191 149.406 34.0918 149.406 33.4902V32.0371C149.406 31.4277 149.476 30.8945 149.617 30.4375C149.757 29.9766 149.959 29.5918 150.22 29.2832C150.486 28.9746 150.8 28.7422 151.164 28.5859C151.531 28.4297 151.935 28.3516 152.377 28.3516C152.826 28.3516 153.232 28.4297 153.595 28.5859C153.963 28.7422 154.277 28.9746 154.539 29.2832C154.8 29.5918 155.002 29.9766 155.142 30.4375C155.283 30.8945 155.353 31.4277 155.353 32.0371ZM153.941 33.4902V32.0254C153.941 31.5918 153.906 31.2207 153.836 30.9121C153.769 30.5996 153.67 30.3457 153.537 30.1504C153.404 29.9512 153.24 29.8047 153.045 29.7109C152.853 29.6133 152.63 29.5645 152.377 29.5645C152.13 29.5645 151.91 29.6133 151.714 29.7109C151.523 29.8047 151.359 29.9512 151.222 30.1504C151.089 30.3457 150.988 30.5996 150.918 30.9121C150.851 31.2207 150.818 31.5918 150.818 32.0254V33.4902C150.818 33.916 150.853 34.2832 150.923 34.5918C150.994 34.8965 151.095 35.1465 151.228 35.3418C151.365 35.5332 151.531 35.6758 151.726 35.7695C151.921 35.8633 152.142 35.9102 152.388 35.9102C152.638 35.9102 152.861 35.8633 153.056 35.7695C153.252 35.6758 153.414 35.5332 153.543 35.3418C153.675 35.1465 153.775 34.8965 153.841 34.5918C153.908 34.2832 153.941 33.916 153.941 33.4902Z" fill="#697380"/>
<path d="M159.897 33.1562H158.156L158.151 32.0664H159.692C159.93 32.0664 160.133 32.0195 160.301 31.9258C160.469 31.832 160.596 31.6953 160.682 31.5156C160.772 31.3359 160.817 31.1191 160.817 30.8652C160.817 30.584 160.778 30.3555 160.699 30.1797C160.621 30 160.498 29.8691 160.33 29.7871C160.166 29.7051 159.955 29.6641 159.698 29.6641H158.578V37H157.155V28.4688H159.698C160.096 28.4688 160.451 28.5156 160.764 28.6094C161.08 28.6992 161.348 28.8379 161.567 29.0254C161.785 29.2129 161.951 29.4531 162.065 29.7461C162.182 30.0352 162.24 30.3789 162.24 30.7773C162.24 31.125 162.166 31.4453 162.018 31.7383C161.869 32.0273 161.649 32.2656 161.356 32.4531C161.067 32.6367 160.707 32.7461 160.278 32.7812L159.897 33.1562ZM159.844 37H157.688L158.344 35.8105H159.844C160.098 35.8105 160.307 35.7559 160.471 35.6465C160.635 35.5371 160.758 35.3848 160.84 35.1895C160.922 34.9941 160.963 34.7656 160.963 34.5039C160.963 34.2305 160.928 33.9922 160.858 33.7891C160.787 33.5859 160.674 33.4297 160.518 33.3203C160.362 33.2109 160.155 33.1562 159.897 33.1562H158.461L158.473 32.0664H160.307L160.635 32.4824C161.045 32.4902 161.379 32.5918 161.637 32.7871C161.895 32.9785 162.084 33.2266 162.205 33.5312C162.326 33.8359 162.387 34.1621 162.387 34.5098C162.387 35.0527 162.285 35.5098 162.082 35.8809C161.879 36.248 161.588 36.5273 161.209 36.7188C160.834 36.9062 160.379 37 159.844 37Z" fill="#697380"/>
<g clip-path="url(#clip1_691_1209)">
<path d="M6.79688 1.17188H9.14062V10.625H6.79688V1.17188Z" fill="#FFC42E"/>
<path d="M20.8594 1.17188H23.2031V10.625H20.8594V1.17188Z" fill="#FFC42E"/>
<path d="M15 1.17188H13.8281V10.625H16.1719V1.17188H15Z" fill="#FFC42E"/>
<path d="M15 0H1.76562C0.661055 0 -0.234375 0.895431 -0.234375 2V9.45312L2.10938 11.7969V4.34375C2.10938 3.23918 3.00481 2.34375 4.10938 2.34375H25.8906C26.9952 2.34375 27.8906 3.23918 27.8906 4.34375V11.7969L30.2344 9.45312V2C30.2344 0.895431 29.3389 0 28.2344 0H15Z" fill="#FFC42E"/>
<path d="M24.3933 22.3438L17.3619 18.3259L24.9563 13.9862L23.7936 11.9514L15 16.9763L6.20631 11.9514L5.04358 13.9862L12.638 18.3259L5.6067 22.3438L12.6381 26.3617L5.04366 30.7015L6.20639 32.7363L15 27.7114L23.7937 32.7363L24.9564 30.7015L17.3619 26.3617L24.3933 22.3438ZM10.3308 22.3438L15 19.6756L19.6692 22.3438L15 25.012L10.3308 22.3438Z" fill="#84A1C8"/>
<path d="M-0.234375 30.5469V40H4.45312V35.2344H25.5469V40H30.2344V30.5469H15H-0.234375ZM15 9.45312H-0.234375V12.1406C-0.234375 13.2452 0.661056 14.1406 1.76562 14.1406H28.2344C29.3389 14.1406 30.2344 13.2452 30.2344 12.1406V9.45312H15Z" fill="#526E95"/>
</g>
</g>
<defs>
<clipPath id="clip0_691_1209">
<rect width="164" height="40" fill="white"/>
</clipPath>
<clipPath id="clip1_691_1209">
<rect width="30" height="40" fill="white"/>
</clipPath>
</defs>
</svg>
